<svg data-v-423bf9ae="" xmlns="http://www.w3.org/2000/svg" viewBox="0 0 588.8454830833624 60" class="font"><!----><!----><!----><g data-v-423bf9ae="" id="2c5f57b3-6a1c-4dbd-a05d-cdb2ae41a3a4" fill="white" transform="matrix(5.357516765594482,0,0,5.357516765594482,-3.7460989952087402,-5.629579067230225)"><path d="M0.70 12.02L0.70 12.02L0.70 1.27L0.70 1.27Q0.70 1.05 0.92 1.05L0.92 1.05L4.44 1.05L4.44 1.05Q5.43 1.05 5.94 1.57L5.94 1.57L5.94 1.57Q6.45 2.08 6.45 3.07L6.45 3.07L6.45 6.48L6.45 6.48Q6.45 7.89 5.43 8.33L5.43 8.33L6.40 12.00L6.40 12.00Q6.46 12.25 6.20 12.25L6.20 12.25L4.74 12.25L4.74 12.25Q4.55 12.25 4.50 12.05L4.50 12.05L3.57 8.50L2.60 8.50L2.60 12.02L2.60 12.02Q2.60 12.13 2.54 12.19L2.54 12.19L2.54 12.19Q2.48 12.25 2.38 12.25L2.38 12.25L0.92 12.25L0.92 12.25Q0.82 12.25 0.76 12.19L0.76 12.19L0.76 12.19Q0.70 12.13 0.70 12.02ZM2.60 2.90L2.60 6.65L3.99 6.65L3.99 6.65Q4.55 6.65 4.55 6.09L4.55 6.09L4.55 3.46L4.55 3.46Q4.55 2.90 3.99 2.90L3.99 2.90L2.60 2.90ZM7.85 12.02L7.85 12.02L7.85 2.67L7.85 2.67Q7.85 2.57 7.91 2.51L7.91 2.51L7.91 2.51Q7.96 2.45 8.06 2.45L8.06 2.45L13.21 2.45L13.21 2.45Q13.44 2.45 13.44 2.67L13.44 2.67L13.44 4.07L13.44 4.07Q13.44 4.31 13.21 4.31L13.21 4.31L9.75 4.31L9.75 6.47L12.39 6.47L12.39 6.47Q12.61 6.47 12.61 6.71L12.61 6.71L12.61 8.09L12.61 8.09Q12.61 8.33 12.39 8.33L12.39 8.33L9.75 8.33L9.75 10.40L13.21 10.40L13.21 10.40Q13.34 10.40 13.39 10.45L13.39 10.45L13.39 10.45Q13.44 10.50 13.44 10.62L13.44 10.62L13.44 12.02L13.44 12.02Q13.44 12.25 13.21 12.25L13.21 12.25L8.06 12.25L8.06 12.25Q7.96 12.25 7.91 12.19L7.91 12.19L7.91 12.19Q7.85 12.13 7.85 12.02ZM14.83 12.02L14.83 12.02L14.83 2.67L14.83 2.67Q14.83 2.45 15.05 2.45L15.05 2.45L18.42 2.45L18.42 2.45Q19.41 2.45 19.92 2.97L19.92 2.97L19.92 2.97Q20.43 3.49 20.43 4.48L20.43 4.48L20.43 10.23L20.43 10.23Q20.43 11.22 19.92 11.74L19.92 11.74L19.92 11.74Q19.41 12.25 18.42 12.25L18.42 12.25L15.05 12.25L15.05 12.25Q14.83 12.25 14.83 12.02ZM16.73 4.30L16.73 10.40L18.02 10.40L18.02 10.40Q18.58 10.40 18.58 9.84L18.58 9.84L18.58 4.87L18.58 4.87Q18.58 4.30 18.02 4.30L18.02 4.30L16.73 4.30ZM21.83 12.02L21.83 12.02L21.83 2.67L21.83 2.67Q21.83 2.45 22.05 2.45L22.05 2.45L25.42 2.45L25.42 2.45Q26.41 2.45 26.93 2.96L26.93 2.96L26.93 2.96Q27.45 3.47 27.45 4.46L27.45 4.46L27.45 6.36L27.45 6.36Q27.45 6.74 27.20 7.01L27.20 7.01L27.20 7.01Q26.95 7.29 26.56 7.35L26.56 7.35L26.56 7.38L26.56 7.38Q26.95 7.44 27.20 7.71L27.20 7.71L27.20 7.71Q27.45 7.99 27.45 8.37L27.45 8.37L27.45 10.23L27.45 10.23Q27.45 11.22 26.93 11.74L26.93 11.74L26.93 11.74Q26.41 12.25 25.42 12.25L25.42 12.25L22.05 12.25L22.05 12.25Q21.95 12.25 21.89 12.19L21.89 12.19L21.89 12.19Q21.83 12.13 21.83 12.02ZM23.56 8.29L23.56 10.49L25.11 10.49L25.11 10.49Q25.67 10.49 25.67 9.93L25.67 9.93L25.67 8.85L25.67 8.85Q25.67 8.29 25.11 8.29L25.11 8.29L23.56 8.29ZM23.56 4.21L23.56 6.44L25.11 6.44L25.11 6.44Q25.38 6.44 25.53 6.30L25.53 6.30L25.53 6.30Q25.67 6.15 25.67 5.89L25.67 5.89L25.67 4.77L25.67 4.77Q25.67 4.21 25.11 4.21L25.11 4.21L23.56 4.21ZM28.84 12.02L28.84 12.02L28.84 2.67L28.84 2.67Q28.84 2.57 28.90 2.51L28.90 2.51L28.90 2.51Q28.96 2.45 29.05 2.45L29.05 2.45L34.21 2.45L34.21 2.45Q34.43 2.45 34.43 2.67L34.43 2.67L34.43 4.07L34.43 4.07Q34.43 4.31 34.21 4.31L34.21 4.31L30.75 4.31L30.75 6.47L33.38 6.47L33.38 6.47Q33.61 6.47 33.61 6.71L33.61 6.71L33.61 8.09L33.61 8.09Q33.61 8.33 33.38 8.33L33.38 8.33L30.75 8.33L30.75 10.40L34.21 10.40L34.21 10.40Q34.34 10.40 34.38 10.45L34.38 10.45L34.38 10.45Q34.43 10.50 34.43 10.62L34.43 10.62L34.43 12.02L34.43 12.02Q34.43 12.25 34.21 12.25L34.21 12.25L29.05 12.25L29.05 12.25Q28.96 12.25 28.90 12.19L28.90 12.19L28.90 12.19Q28.84 12.13 28.84 12.02ZM35.27 12.01L35.27 12.01L37.60 2.65L37.60 2.65Q37.64 2.45 37.84 2.45L37.84 2.45L39.79 2.45L39.79 2.45Q39.98 2.45 40.02 2.65L40.02 2.65L42.35 12.01L42.35 12.01Q42.36 12.06 42.36 12.09L42.36 12.09L42.36 12.09Q42.36 12.25 42.15 12.25L42.15 12.25L40.79 12.25L40.79 12.25Q40.61 12.25 40.57 12.05L40.57 12.05L40.12 10.29L37.49 10.29L37.06 12.05L37.06 12.05Q37.02 12.25 36.83 12.25L36.83 12.25L35.46 12.25L35.46 12.25Q35.26 12.25 35.26 12.10L35.26 12.10L35.26 12.10Q35.26 12.06 35.27 12.01ZM38.81 4.86L37.93 8.67L39.69 8.67L38.81 4.86ZM43.34 12.02L43.34 12.02L43.34 2.67L43.34 2.67Q43.34 2.57 43.40 2.51L43.40 2.51L43.40 2.51Q43.46 2.45 43.57 2.45L43.57 2.45L46.93 2.45L46.93 2.45Q47.92 2.45 48.43 2.96L48.43 2.96L48.43 2.96Q48.95 3.47 48.95 4.46L48.95 4.46L48.95 7.28L48.95 7.28Q48.95 8.50 48.16 8.99L48.16 8.99L48.88 12.00L48.88 12.00Q48.95 12.25 48.69 12.25L48.69 12.25L47.32 12.25L47.32 12.25Q47.12 12.25 47.08 12.05L47.08 12.05L46.41 9.30L45.17 9.30L45.17 12.02L45.17 12.02Q45.17 12.13 45.10 12.19L45.10 12.19L45.10 12.19Q45.04 12.25 44.94 12.25L44.94 12.25L43.57 12.25L43.57 12.25Q43.46 12.25 43.40 12.19L43.40 12.19L43.40 12.19Q43.34 12.13 43.34 12.02ZM45.17 4.26L45.17 7.49L46.56 7.49L46.56 7.49Q47.12 7.49 47.12 6.93L47.12 6.93L47.12 4.82L47.12 4.82Q47.12 4.26 46.56 4.26L46.56 4.26L45.17 4.26ZM50.34 12.02L50.34 12.02L50.34 2.67L50.34 2.67Q50.34 2.45 50.57 2.45L50.57 2.45L53.93 2.45L53.93 2.45Q54.92 2.45 55.43 2.97L55.43 2.97L55.43 2.97Q55.95 3.49 55.95 4.48L55.95 4.48L55.95 10.23L55.95 10.23Q55.95 11.22 55.43 11.74L55.43 11.74L55.43 11.74Q54.92 12.25 53.93 12.25L53.93 12.25L50.57 12.25L50.57 12.25Q50.34 12.25 50.34 12.02ZM52.25 4.30L52.25 10.40L53.53 10.40L53.53 10.40Q54.09 10.40 54.09 9.84L54.09 9.84L54.09 4.87L54.09 4.87Q54.09 4.30 53.53 4.30L53.53 4.30L52.25 4.30ZM60.84 11.97L60.84 11.97L60.84 1.33L60.84 1.33Q60.84 1.05 61.12 1.05L61.12 1.05L62.47 1.05L62.47 1.05Q62.75 1.05 62.75 1.33L62.75 1.33L62.75 5.67L64.90 1.26L64.90 1.26Q65.00 1.05 65.22 1.05L65.22 1.05L66.69 1.05L66.69 1.05Q66.85 1.05 66.90 1.15L66.90 1.15L66.90 1.15Q66.96 1.24 66.89 1.39L66.89 1.39L64.51 6.28L67.05 11.93L67.05 11.93Q67.09 12.00 67.09 12.07L67.09 12.07L67.09 12.07Q67.09 12.11 67.06 12.15L67.06 12.15L67.06 12.15Q67.01 12.25 66.83 12.25L66.83 12.25L65.35 12.25L65.35 12.25Q65.11 12.25 65.03 12.04L65.03 12.04L63.27 7.88L62.75 8.87L62.75 11.97L62.75 11.97Q62.75 12.25 62.47 12.25L62.47 12.25L61.12 12.25L61.12 12.25Q60.84 12.25 60.84 11.97ZM68.07 12.01L68.07 12.01L70.40 2.65L70.40 2.65Q70.44 2.45 70.64 2.45L70.64 2.45L72.58 2.45L72.58 2.45Q72.78 2.45 72.82 2.65L72.82 2.65L75.15 12.01L75.15 12.01Q75.16 12.06 75.16 12.09L75.16 12.09L75.16 12.09Q75.16 12.25 74.95 12.25L74.95 12.25L73.59 12.25L73.59 12.25Q73.41 12.25 73.37 12.05L73.37 12.05L72.92 10.29L70.29 10.29L69.86 12.05L69.86 12.05Q69.82 12.25 69.63 12.25L69.63 12.25L68.26 12.25L68.26 12.25Q68.06 12.25 68.06 12.10L68.06 12.10L68.06 12.10Q68.06 12.06 68.07 12.01ZM71.61 4.86L70.72 8.67L72.49 8.67L71.61 4.86ZM76.14 12.02L76.14 12.02L76.14 2.67L76.14 2.67Q76.14 2.57 76.20 2.51L76.20 2.51L76.20 2.51Q76.26 2.45 76.36 2.45L76.36 2.45L79.73 2.45L79.73 2.45Q80.72 2.45 81.23 2.96L81.23 2.96L81.23 2.96Q81.74 3.47 81.74 4.46L81.74 4.46L81.74 7.28L81.74 7.28Q81.74 8.50 80.96 8.99L80.96 8.99L81.68 12.00L81.68 12.00Q81.74 12.25 81.49 12.25L81.49 12.25L80.12 12.25L80.12 12.25Q79.92 12.25 79.88 12.05L79.88 12.05L79.21 9.30L77.96 9.30L77.96 12.02L77.96 12.02Q77.96 12.13 77.90 12.19L77.90 12.19L77.90 12.19Q77.84 12.25 77.74 12.25L77.74 12.25L76.36 12.25L76.36 12.25Q76.26 12.25 76.20 12.19L76.20 12.19L76.20 12.19Q76.14 12.13 76.14 12.02ZM77.96 4.26L77.96 7.49L79.36 7.49L79.36 7.49Q79.92 7.49 79.92 6.93L79.92 6.93L79.92 4.82L79.92 4.82Q79.92 4.26 79.36 4.26L79.36 4.26L77.96 4.26ZM82.59 12.01L82.59 12.01L84.92 2.65L84.92 2.65Q84.96 2.45 85.16 2.45L85.16 2.45L87.10 2.45L87.10 2.45Q87.30 2.45 87.34 2.65L87.34 2.65L89.67 12.01L89.67 12.01Q89.68 12.06 89.68 12.09L89.68 12.09L89.68 12.09Q89.68 12.25 89.47 12.25L89.47 12.25L88.11 12.25L88.11 12.25Q87.93 12.25 87.89 12.05L87.89 12.05L87.44 10.29L84.81 10.29L84.38 12.05L84.38 12.05Q84.33 12.25 84.15 12.25L84.15 12.25L82.78 12.25L82.78 12.25Q82.58 12.25 82.58 12.10L82.58 12.10L82.58 12.10Q82.58 12.06 82.59 12.01ZM86.13 4.86L85.24 8.67L87.01 8.67L86.13 4.86ZM90.79 10.23L90.79 10.23L90.79 4.46L90.79 4.46Q90.79 3.47 91.31 2.96L91.31 2.96L91.31 2.96Q91.82 2.45 92.81 2.45L92.81 2.45L94.38 2.45L94.38 2.45Q95.38 2.45 95.89 2.96L95.89 2.96L95.89 2.96Q96.40 3.47 96.40 4.46L96.40 4.46L96.40 10.23L96.40 10.23Q96.40 11.22 95.89 11.74L95.89 11.74L95.89 11.74Q95.38 12.25 94.38 12.25L94.38 12.25L92.81 12.25L92.81 12.25Q91.82 12.25 91.31 11.74L91.31 11.74L91.31 11.74Q90.79 11.22 90.79 10.23ZM92.62 4.82L92.62 9.88L92.62 9.88Q92.62 10.45 93.18 10.45L93.18 10.45L94.08 10.45L94.08 10.45Q94.64 10.45 94.64 9.88L94.64 9.88L94.64 4.82L94.64 4.82Q94.64 4.26 94.08 4.26L94.08 4.26L93.18 4.26L93.18 4.26Q92.62 4.26 92.62 4.82L92.62 4.82ZM97.79 11.97L97.79 11.97L97.79 2.73L97.79 2.73Q97.79 2.45 98.08 2.45L98.08 2.45L99.42 2.45L99.42 2.45Q99.70 2.45 99.70 2.73L99.70 2.73L99.70 6.37L101.86 2.66L101.86 2.66Q101.97 2.45 102.18 2.45L102.18 2.45L103.65 2.45L103.65 2.45Q103.80 2.45 103.87 2.55L103.87 2.55L103.87 2.55Q103.93 2.65 103.84 2.79L103.84 2.79L101.47 6.97L104.00 11.93L104.00 11.93Q104.04 12.00 104.04 12.07L104.04 12.07L104.04 12.07Q104.04 12.11 104.02 12.15L104.02 12.15L104.02 12.15Q103.96 12.25 103.79 12.25L103.79 12.25L102.31 12.25L102.31 12.25Q102.09 12.25 101.99 12.04L101.99 12.04L100.22 8.58L99.70 9.58L99.70 11.97L99.70 11.97Q99.70 12.25 99.42 12.25L99.42 12.25L98.08 12.25L98.08 12.25Q97.79 12.25 97.79 11.97ZM105.01 12.02L105.01 12.02L105.01 2.67L105.01 2.67Q105.01 2.57 105.07 2.51L105.07 2.51L105.07 2.51Q105.13 2.45 105.23 2.45L105.23 2.45L110.38 2.45L110.38 2.45Q110.61 2.45 110.61 2.67L110.61 2.67L110.61 4.07L110.61 4.07Q110.61 4.31 110.38 4.31L110.38 4.31L106.92 4.31L106.92 6.47L109.55 6.47L109.55 6.47Q109.78 6.47 109.78 6.71L109.78 6.71L109.78 8.09L109.78 8.09Q109.78 8.33 109.55 8.33L109.55 8.33L106.92 8.33L106.92 10.40L110.38 10.40L110.38 10.40Q110.51 10.40 110.56 10.45L110.56 10.45L110.56 10.45Q110.61 10.50 110.61 10.62L110.61 10.62L110.61 12.02L110.61 12.02Q110.61 12.25 110.38 12.25L110.38 12.25L105.23 12.25L105.23 12.25Q105.13 12.25 105.07 12.19L105.07 12.19L105.07 12.19Q105.01 12.13 105.01 12.02Z"></path></g><!----><!----></svg>